<svg width="18" height="18" fill="none" xmlns="http://www.w3.org/2000/svg"><path d="M12.379 0H5.62A5.615 5.615 0 0 0 0 5.621v6.758A5.615 5.615 0 0 0 5.621 18h6.758A5.615 5.615 0 0 0 18 12.379V5.62A5.615 5.615 0 0 0 12.379 0zm3.927 12.379a3.934 3.934 0 0 1-3.927 3.927H5.62a3.935 3.935 0 0 1-3.927-3.927V5.62A3.935 3.935 0 0 1 5.62 1.693h6.758a3.935 3.935 0 0 1 3.927 3.927v6.758z" fill="#000" fill-opacity=".5"/><path d="M8.99 4.505A4.5 4.5 0 0 0 4.485 9.01a4.5 4.5 0 0 0 4.505 4.505 4.5 4.5 0 0 0 4.505-4.505A4.5 4.5 0 0 0 8.99 4.505zm0 7.296A2.807 2.807 0 0 1 6.18 8.99a2.807 2.807 0 0 1 2.81-2.81 2.807 2.807 0 0 1 2.81 2.81c.02 1.555-1.255 2.81-2.81 2.81zm4.844-7.037a.598.598 0 1 0 0-1.196.598.598 0 0 0 0 1.196z" fill="#000" fill-opacity=".5"/></svg>