<svg width="94" height="94" fill="none" xmlns="http://www.w3.org/2000/svg"><g filter="url(#filter0_d)" fill="#ED1C24"><path d="M88.67 22.894a4.12 4.12 0 0 1-4.113-4.115c0-.706-.57-1.26-1.26-1.26-.687 0-1.258.571-1.258 1.26a4.12 4.12 0 0 1-4.113 4.115c-.705 0-1.259.571-1.259 1.26 0 .689.571 1.26 1.26 1.26a4.12 4.12 0 0 1 4.112 4.115c0 .705.57 1.26 1.259 1.26.688 0 1.259-.571 1.259-1.26a4.12 4.12 0 0 1 4.112-4.115c.706 0 1.26-.571 1.26-1.26 0-.689-.571-1.26-1.26-1.26zm-5.39 2.756a7.006 7.006 0 0 0-1.494-1.495 7.003 7.003 0 0 0 1.494-1.495c.42.571.923 1.075 1.494 1.495a7.01 7.01 0 0 0-1.494 1.495zM9.372 29.529c0 .705.57 1.26 1.258 1.26.689 0 1.26-.571 1.26-1.26a4.12 4.12 0 0 1 4.112-4.115c.705 0 1.26-.571 1.26-1.26a1.27 1.27 0 0 0-1.26-1.26 4.12 4.12 0 0 1-4.112-4.115c0-.706-.571-1.26-1.26-1.26-.688 0-1.258.571-1.258 1.26a4.12 4.12 0 0 1-4.113 4.115c-.705 0-1.259.571-1.259 1.26 0 .689.57 1.26 1.259 1.26a4.12 4.12 0 0 1 4.113 4.115zm1.258-6.87c.42.571.924 1.075 1.494 1.495a7.01 7.01 0 0 0-1.494 1.495 7.007 7.007 0 0 0-1.493-1.495 7.005 7.005 0 0 0 1.493-1.495zM40.225 9.255a5.475 5.475 0 0 1 5.472 5.476 1.258 1.258 0 1 0 2.518 0 5.475 5.475 0 0 1 5.472-5.476c.705 0 1.26-.571 1.26-1.26a1.27 1.27 0 0 0-1.26-1.26 5.475 5.475 0 0 1-5.472-5.475c0-.706-.57-1.26-1.26-1.26-.704 0-1.258.571-1.258 1.26a5.475 5.475 0 0 1-5.472 5.476c-.705 0-1.26.57-1.26 1.26 0 .688.571 1.26 1.26 1.26zm6.73-3.678a7.91 7.91 0 0 0 2.418 2.418 7.91 7.91 0 0 0-2.417 2.42 7.91 7.91 0 0 0-2.417-2.42 8.098 8.098 0 0 0 2.417-2.418zm26.103 38.145c.235-.336.302-.756.168-1.142l-4.901-13.908a2.62 2.62 0 0 0-2.451-1.747H27.719a2.588 2.588 0 0 0-2.45 1.747L20.366 42.58c-.286.806.335 1.68 1.191 1.68h50.476c.403 0 .79-.202 1.024-.538zM23.321 41.74l4.314-12.228a.092.092 0 0 1 .084-.05h38.138c.034 0 .067.017.084.05l4.314 12.228H23.321zm40.236 26.405c1.159 2.738 5.288 3.527 9.417 1.797 4.13-1.73 6.463-5.24 5.305-7.978-1.158-2.738-5.288-3.528-9.417-1.798-4.13 1.73-6.463 5.241-5.305 7.979zm12.405-5.224c.504 1.21-1.074 3.46-3.961 4.686-2.887 1.227-5.607.773-6.11-.436-.504-1.21 1.074-3.46 3.961-4.687 2.887-1.209 5.607-.772 6.11.437zM24.53 60.166c-4.13-1.73-8.26-.957-9.418 1.798-1.158 2.738 1.176 6.248 5.305 7.978 4.13 1.73 8.259.958 9.417-1.797 1.158-2.738-1.175-6.248-5.305-7.979zm-.974 2.318c2.887 1.21 4.465 3.477 3.961 4.687-.503 1.21-3.223 1.646-6.11.436-2.887-1.209-4.465-3.477-3.961-4.686.503-1.21 3.223-1.646 6.11-.437zm-5.019-4.753h8.074c.705 0 1.259-.571 1.259-1.26 0-.688-.57-1.26-1.259-1.26h-8.074a1.26 1.26 0 1 0 0 2.52zm47.169-1.26c0 .706.57 1.26 1.259 1.26h8.074c.705 0 1.26-.571 1.26-1.26a1.27 1.27 0 0 0-1.26-1.26h-8.074c-.688-.017-1.259.555-1.259 1.26zM41.114 25.414a1.26 1.26 0 1 0 0-2.519 1.26 1.26 0 0 0 0 2.519z"/><path d="M87.159 40.397h-6.732c-.57 0-1.09.386-1.225.957l-.89 3.544-6.194-17.57a6.66 6.66 0 0 0-6.261-4.434H47.661a1.26 1.26 0 1 0 0 2.52h18.196a4.108 4.108 0 0 1 3.878 2.754l6.21 17.62h-7.587c-.688 0-1.292.538-1.31 1.227a1.255 1.255 0 0 0 1.26 1.293h8.762l5.355 7.491c.504.706.772 1.546.772 2.402v14.513h-23.03v-9.507a6.643 6.643 0 0 0-6.648-6.652H40.057a6.643 6.643 0 0 0-6.648 6.652v9.507H10.38V58.2c0-.856.268-1.696.772-2.402l5.355-7.491h46.397c.688 0 1.292-.538 1.309-1.226a1.255 1.255 0 0 0-1.259-1.294H17.63l6.211-17.62c.588-1.646 2.149-2.754 3.878-2.754h6.832c.705 0 1.259-.571 1.259-1.26 0-.706-.571-1.26-1.26-1.26h-6.83a6.66 6.66 0 0 0-6.261 4.434l-6.194 17.57-.89-3.544a1.26 1.26 0 0 0-1.226-.957h-6.73c-.706 0-1.26.57-1.26 1.26v5.374c0 .706.57 1.26 1.26 1.26h6.965l-4.297 6.03a6.66 6.66 0 0 0-1.242 3.863v15.773a6.65 6.65 0 0 0 2.686 5.341v4.082a2.605 2.605 0 0 0 2.602 2.603h8.074a2.605 2.605 0 0 0 2.602-2.603v-2.772h45.91v2.772a2.605 2.605 0 0 0 2.602 2.603h8.074a2.605 2.605 0 0 0 2.602-2.603v-4.081a6.65 6.65 0 0 0 2.686-5.342V58.184c0-1.394-.42-2.737-1.243-3.863l-4.247-6.013h6.967c.705 0 1.259-.571 1.259-1.26v-5.392c0-.705-.571-1.26-1.26-1.26zM7.676 45.772v-2.856h4.482l.722 2.856H7.676zm32.38 13.303H53.52a4.15 4.15 0 0 1 3.928 2.855H36.145a4.092 4.092 0 0 1 3.912-2.855zm-4.112 5.375H57.65v2.855H35.944V64.45zm0 5.391H57.65v2.856H35.944V69.84zM21.306 83.397c0 .05-.033.084-.083.084h-8.075c-.05 0-.083-.034-.083-.084v-2.772h8.241v2.772zm59.205 0c0 .05-.033.084-.084.084h-8.074a.08.08 0 0 1-.084-.084v-2.772h8.242v2.772zm-1.426-5.308H14.49a4.15 4.15 0 0 1-3.928-2.856h72.433a4.113 4.113 0 0 1-3.911 2.856zM85.9 45.772h-5.204l.722-2.856H85.9v2.856z"/></g><defs><filter id="filter0_d" x="0" y="0" width="93.928" height="93.983" filterUnits="userSpaceOnUse" color-interpolation-filters="sRGB"><feFlood flood-opacity="0" result="BackgroundImageFix"/><feColorMatrix in="SourceAlpha" values="0 0 0 0 0 0 0 0 0 0 0 0 0 0 0 0 0 0 127 0"/><feOffset dy="4"/><feGaussianBlur stdDeviation="2"/><feColorMatrix values="0 0 0 0 0.929412 0 0 0 0 0.109804 0 0 0 0 0.141176 0 0 0 0.2 0"/><feBlend in2="BackgroundImageFix" result="effect1_dropShadow"/><feBlend in="SourceGraphic" in2="effect1_dropShadow" result="shape"/></filter></defs></svg>