<svg width="18" height="11" fill="none" xmlns="http://www.w3.org/2000/svg"><path d="M8.788 10.03h1.076s.32-.039.498-.215c.16-.157.14-.47.14-.47s-.02-1.41.658-1.625c.657-.196 1.514 1.37 2.411 1.977.678.45 1.196.353 1.196.353l2.412-.04s1.255-.078.657-1.037c-.04-.078-.339-.724-1.793-2.036-1.515-1.37-1.296-1.155.518-3.524 1.096-1.45 1.554-2.33 1.415-2.702-.14-.353-.937-.275-.937-.275l-2.73.04s-.2-.02-.36.058c-.139.079-.238.294-.238.294s-.419 1.116-.997 2.075c-1.196 2.017-1.694 2.115-1.893 1.998-.458-.294-.339-1.175-.339-1.802 0-1.938.299-2.76-.578-2.976C9.605.045 9.386.006 8.65.006c-.957-.02-1.774 0-2.252.235-.3.156-.539.47-.4.49.18.019.579.097.798.39.28.373.26 1.195.26 1.195s.159 2.29-.38 2.585c-.358.195-.856-.196-1.933-2.037-.558-.94-.956-1.958-.956-1.958s-.08-.195-.22-.293a1.249 1.249 0 0 0-.418-.157L.577.476S.198.496.059.652c-.12.156-.02.45-.02.45s2.013 4.62 4.285 6.95c2.092 2.115 4.464 1.978 4.464 1.978z" fill="#000" fill-opacity=".5"/></svg>