<svg xmlns:svg="http://www.w3.org/2000/svg" xmlns="http://www.w3.org/2000/svg" viewBox="0 0 206.667 177.333" height="177.333" width="206.667" xml:space="preserve" id="svg2" version="1.1"><g transform="matrix(1.33333 0 0 -1.33333 0 177.333)" id="g10"><g transform="scale(.1)" id="g12" fill-opacity="1" stroke="none"><path id="path14" d="M1430.07 681.004h71.96V45.355h-71.96zM50.836 926.867h80.953V45.356H50.836zm122.93-644.644H1388.09v-68.961H173.766zm0 194.894H1388.09V324.199H173.766zm287.839 41.973c-42.074 0-220.449-3.238-248.777 3.086l-21.703 11.277c-29.023 25.371-25.797 114.567 33.609 114.567h245.868c71.804 0 78.382-128.93-8.997-128.93zM8.852 959.848V12.371c6.496-4.348 9.98-8.996 20.992-8.996h122.929c14 0 20.993 6.992 20.993 20.988v146.918H1388.09V15.371c8.91-7.969 10.53-11.531 18-11.996h116.93c11.01 0 14.5 4.648 20.99 8.996v689.621c0 16.817-10.37 20.988-26.99 20.988h-104.94c-13.63 0-15.64-6.406-23.99-11.996V519.09H551.559c40.308 76.187-.735 170.906-68.965 170.906H218.742c-24.683 0-28.07-8.051-44.976-11.992v233.871c0 69.582 17.402 56.969-143.922 56.969-11.012 0-14.496-4.645-20.992-8.996" fill="#000002" fill-rule="evenodd"/><path id="path16" d="M308.313 1065.37v263.5h181.066v-44.53H361.684v-62.56h110.394v-44.54H361.684v-111.87zm224.796 0v263.5H645.18c28.144 0 48.64-2.39 61.39-7.11 12.825-4.72 23.004-13.13 30.672-25.22 7.672-12.14 11.528-25.93 11.528-41.52 0-19.81-5.766-36.13-17.356-49.01-11.594-12.87-28.883-20.98-51.953-24.35 11.473-6.69 20.922-14.04 28.336-22.08 7.484-8.03 17.547-22.33 30.187-42.81l32.137-51.4h-63.605l-38.153 57.53c-13.679 20.43-23.058 33.31-28.16 38.64-5.023 5.28-10.359 8.96-16.004 10.92-5.703 1.97-14.668 2.95-26.933 2.95H586.48v-110.04zm53.371 151.99h39.372c25.515 0 41.41 1.11 47.781 3.25 6.32 2.14 11.351 5.89 14.906 11.17 3.617 5.27 5.402 11.89 5.402 19.8 0 8.9-2.394 16.02-7.121 21.54-4.718 5.45-11.406 8.89-19.992 10.3-4.359.62-17.297.92-38.824.92H586.48zm212.395-151.99v263.5h195.063v-44.53H852.25v-58.52H984v-44.53H852.25v-71.4h146.832v-44.52zm245.475 0v263.5h195.06v-44.53h-141.69v-58.52h131.75v-44.53h-131.75v-71.4h146.83v-44.52h-200.2" fill="#000" fill-rule="nonzero"/></g></g></svg>