<svg id="Слой_1" data-name="Слой 1" xmlns="http://www.w3.org/2000/svg" viewBox="0 0 96 91.91"><defs><style>.cls-1{fill:#f41919;}</style></defs><title>icons</title><path d="M83.79,36.7v9.73H35.21a5.45,5.45,0,0,0,1.42-3.67v-.67a5.51,5.51,0,0,0-5.51-5.51H17.53a5.52,5.52,0,0,0-4.11,1.86V16.06H5.71V75.92h7.71V66.18H83.79v9.74h9.86V36.7Zm0,21.14H14.54V48.4H83.79ZM14,42.09a3.55,3.55,0,0,1,3.55-3.54H31.12a3.55,3.55,0,0,1,3.54,3.54v.67a3.55,3.55,0,0,1-3.54,3.55H17.53A3.55,3.55,0,0,1,14,42.76Zm-.55,4.34h0Zm-2,27.51H7.68V18h3.77Zm3.09-9.73v-4.4H83.79v4.4Zm77.14,9.73H85.77V38.67h5.91Z"/><path class="cls-1" d="M33.59,15.94v2.17h-7v3.6h6.73v2.18H26.62v7.16H23.56V15.94Z"/><path class="cls-1" d="M37.07,15.94h3.57a12.15,12.15,0,0,1,5.29.88,3.82,3.82,0,0,1,2.37,3.56,3.62,3.62,0,0,1-1.22,2.74,6.14,6.14,0,0,1-3.22,1.47l6.24,6.46H46.41l-5.74-6.19h-.54v6.19H37.07Zm3.06,2.13v4.8h1l.79,0a9.53,9.53,0,0,0,1.06-.16,4.87,4.87,0,0,0,1.17-.38,2.3,2.3,0,0,0,.87-.73,1.92,1.92,0,0,0,.38-1.18q0-2.32-4.18-2.33Z"/><path class="cls-1" d="M64.15,15.94v2.17h-8v3.6h7.75v2.18H56.16v5h8v2.18H53.1V15.94Z"/><path class="cls-1" d="M79.16,15.94v2.17h-8v3.6h7.74v2.18H71.18v5h8v2.18h-11V15.94Z"/></svg>