<svg id="Слой_1" data-name="Слой 1" xmlns="http://www.w3.org/2000/svg" viewBox="0 0 96 91.91"><defs><style>.cls-1{fill:#f41919;}</style></defs><title>icons</title><path d="M93.55,44.61l-5-21.69a4,4,0,0,0-1.82-2.55,4.07,4.07,0,0,0-3.1-.52l-5.47,1.27A4.09,4.09,0,0,0,75,25.48l-8.17,1.74a12.29,12.29,0,0,1-4.36.14l-8.75-1.3a7.71,7.71,0,0,0-3.8.42l-.46.17-2.84-1.07a9.08,9.08,0,0,0-7,.21l-1.21.55c-2.12,1-4.24,2-6.14,3a10.2,10.2,0,0,1-2.83.45A33.28,33.28,0,0,1,24.22,29a4.15,4.15,0,0,0-2.78-3.82L15.31,23.1a4.14,4.14,0,0,0-5.26,2.56L2.58,47.29a4.14,4.14,0,0,0,2.56,5.27l6.13,2.12h0a4.19,4.19,0,0,0,1.35.22,4.13,4.13,0,0,0,3.75-2.47A43.9,43.9,0,0,1,23,56.67l-.1.13a3.41,3.41,0,0,0,.68,4.76l1,.78h0a3.33,3.33,0,0,0,1.22.54A3.67,3.67,0,0,0,25.49,65a3.63,3.63,0,0,0,1.43,2.41l1,.78h0a3.66,3.66,0,0,0,4.62-.21,3.71,3.71,0,0,0,1,1.25l1,.77a3.53,3.53,0,0,0,4.8-.54,3.29,3.29,0,0,0,1,1.3l1,.77a3.33,3.33,0,0,0,2.05.69l.5,0A3.38,3.38,0,0,0,46.3,70.8l1.5-2,.2-.26s0,0,0,0,0,.06,0,.08a4.06,4.06,0,0,0,2.62,1,4,4,0,0,0,2.88-1.2l1-1,.16-.18a3.78,3.78,0,0,0,.83.12,4.07,4.07,0,0,0,2.86-1.18l1-1v0a4.47,4.47,0,0,0,1-1.65,4.08,4.08,0,0,0,4.48-.85l1-1a4,4,0,0,0,1.06-1.89,4.53,4.53,0,0,0,.9.12,4.08,4.08,0,0,0,2.87-1.2l1-1a4,4,0,0,0,1.08-3.73l-.39-.38,4-4,4.68-.1a4.5,4.5,0,0,0,.92.82,4.1,4.1,0,0,0,2.17.62,4.22,4.22,0,0,0,.93-.11l5.48-1.27A4.11,4.11,0,0,0,93.55,44.61ZM11.88,52.89,5.76,50.78a2.3,2.3,0,0,1-1.3-1.15,2.23,2.23,0,0,1-.1-1.72l7.47-21.63A2.27,2.27,0,0,1,13,25a2.23,2.23,0,0,1,1.72-.1L20.83,27a2.26,2.26,0,0,1,1.39,2.87L14.75,51.5A2.25,2.25,0,0,1,11.88,52.89ZM24.6,60.15A1.6,1.6,0,0,1,24,59.07a1.64,1.64,0,0,1,.31-1.21L25.65,56a1.88,1.88,0,0,1,1.25-.74,1.86,1.86,0,0,1,1.4.36l.63.47a1.83,1.83,0,0,1,.72,1.5L27,61.19l-.12.05a1.64,1.64,0,0,1-1.21-.31Zm5.74,6.42a1.38,1.38,0,0,1-1-.26l-1-.77a1.44,1.44,0,0,1-.54-.91,1.34,1.34,0,0,1,.27-1l4.43-5.93a1.59,1.59,0,0,1,1.08-.63,1.64,1.64,0,0,1,1.21.31l.62.47A1.6,1.6,0,0,1,36,58.9a1.64,1.64,0,0,1-.31,1.21L31.25,66A1.38,1.38,0,0,1,30.34,66.57ZM38,68a1.47,1.47,0,0,1-2.07.29l-1-.77a1.48,1.48,0,0,1-.31-2.06l2.24-3,.92-1.23a1.68,1.68,0,0,1,1.36-.67,1.5,1.5,0,0,1,.37,0,1.39,1.39,0,0,1,.69.31l.63.47a1.72,1.72,0,0,1,.49,2.17l0,.08-.11.17Zm8.55-.45-1.64,2.19a1.62,1.62,0,0,1-2.27.32l-1-.78a1.57,1.57,0,0,1-.63-1,1.54,1.54,0,0,1,.25-1.08L42.76,65l.12-.21a1.86,1.86,0,0,1,.5-.37,1.77,1.77,0,0,1,.94-.27,1.82,1.82,0,0,1,1.1.37l.64.46a1.88,1.88,0,0,1,.44,2.52ZM69.8,55.77l-1,1a1.48,1.48,0,0,1-2.08,0L66,56c-.06-.06-.09-.14-.15-.2l-6-5.93-1.78,1.9,5.95,6a1.46,1.46,0,0,1,.37.93,1.42,1.42,0,0,1-.43,1l-1,1a1.47,1.47,0,0,1-2.07,0L55.1,55l-1.91,2,4.56,4.56a1.46,1.46,0,0,1-.25,1.69l-1,1a1.46,1.46,0,0,1-1.18.39l-.58-.35L50.38,60,48.5,62l3.8,3.83-.66.66a1.47,1.47,0,0,1-1.82.19l-1.22-.21a3.65,3.65,0,0,0-1.48-2.92l-.63-.46a3.63,3.63,0,0,0-3-.63A3.78,3.78,0,0,0,42,59.71l-.61-.45a3.42,3.42,0,0,0-1.6-.71,3.7,3.7,0,0,0-1.52.06v0A3.89,3.89,0,0,0,36.72,56l-.63-.47A3.87,3.87,0,0,0,31,55.9a3.67,3.67,0,0,0-1-1.21l-.63-.46a3.65,3.65,0,0,0-5.11.73l-.15.2a44.7,44.7,0,0,0-7-4.5l6.83-19.78a32.69,32.69,0,0,0,5.5.79h.11a12,12,0,0,0,3.51-.6c2-1,4.12-2.05,6.22-3l1.19-.54a7.19,7.19,0,0,1,5.54-.17l.81.31-2.39.88-2.88,1A16.71,16.71,0,0,0,32,38.13c-1.46,3.18-.83,5,2.37,6.53a6.41,6.41,0,0,0,6.12-.93l2.79-2.66A7.56,7.56,0,0,1,48.16,39l5.32-.92,14.1,13.48c.53.54.92,1,1.24,1.38a5,5,0,0,0,1.24,1.19A1.5,1.5,0,0,1,69.8,55.77Zm5.71-8.08L71,52.21l-6.33-6.13,0,0L60,41.66c.59,0,1.18-.09,1.78-.07a17.68,17.68,0,0,1,4.46.65l.09-.17a12.62,12.62,0,0,0-4.34-2,6.13,6.13,0,0,0-2.39-.36,5.57,5.57,0,0,0-1.26.33l-4.21-4L48,37.11a9.29,9.29,0,0,0-6,2.6l-2.56,2.47a4.43,4.43,0,0,1-4.37.73c-2.12-1-2.36-1.74-1.33-4a14.82,14.82,0,0,1,8.41-7.58l2.87-1c1.88-.68,3.76-1.37,5.58-2.06a5.78,5.78,0,0,1,2.85-.31l8.75,1.29a14,14,0,0,0,5-.16l8.14-1.73L80.05,47.6Zm14.56.08L84.59,49a2.31,2.31,0,0,1-2.76-1.72l-5-21.69a2.32,2.32,0,0,1,1.72-2.76L84,21.61a1.86,1.86,0,0,1,.52-.07,2.3,2.3,0,0,1,1.22.35,2.35,2.35,0,0,1,1,1.44l5,21.68A2.3,2.3,0,0,1,90.07,47.77Z"/><path class="cls-1" d="M11.17,42.59a3.06,3.06,0,1,0,3.06,3.06A3.07,3.07,0,0,0,11.17,42.59Zm0,4.23a1.17,1.17,0,1,1,1.18-1.17A1.17,1.17,0,0,1,11.17,46.82Z"/><path class="cls-1" d="M86.42,40.47a3.06,3.06,0,1,0,3.06,3.06A3.07,3.07,0,0,0,86.42,40.47Zm0,4.24a1.18,1.18,0,1,1,1.18-1.18A1.18,1.18,0,0,1,86.42,44.71Z"/></svg>