<svg xmlns:svg="http://www.w3.org/2000/svg" xmlns="http://www.w3.org/2000/svg" viewBox="0 0 132 77.333" height="77.333" width="132" xml:space="preserve" id="svg2" version="1.1"><g transform="matrix(1.33333 0 0 -1.33333 0 77.333)" id="g10"><g transform="scale(.1)" id="g12" fill="#000" fill-opacity="1" fill-rule="evenodd" stroke="none"><path id="path14" d="M74.535 284.379c13.102 3.961 17.844 17.129 15.04 33.988-13.032-5.051-17.071-18.086-15.04-33.988"/><path id="path16" d="M488.199 47.305c-16.554-39.52-68.801-36.934-50.601 7.324 15.59 37.918 69.566 37.965 50.601-7.324zm-45.394 48c-11.004-56.172-90.336-79.368-77.055-17.149 11.57 54.172 88.352 74.828 77.055 17.149zm-69.723 31.199c-16.996-63.461-103.238-87.55-84.832-18.473 16.637 62.422 103.414 87.871 84.832 18.473zm-81.707 24c-15.047-52.453-86.633-56.285-70.422.828 13.43 47.32 86.75 56.082 70.422-.828zm165.297 253.367c-7.746-7.66-46.496-77.332-86.438-80.332-17.562-1.316-31.851 7.598-39.289 18.024-8.953 12.554 18.493 48.562 31.196 74.015 21.093 42.254 15.968 34.973 57.488 55.301 26.09 12.769 51.797 22.598 77.617 35.215 50.414 24.633 127.856-22.477 188.453-10.918 29.922 5.711 64.985 14.773 94.969 18.168l62.426-225.899c-10.004-5.445-22.098-5.109-32.981-7.785-10.093-2.472-6.496-.808-12.086-9.668-10.988-17.402-33.5-41.387-55.601-50.23L611.055 355.977c32.812-9.61 48.117-10.426 76.425 2.628-6.441 4.579-16.664.442-31.464.407-12.028-.028-23.239 1.281-34.395 4.379-20.324 5.644-34.168 15.265-48.219 26.066-34.152 26.258-19.726 21.961-49.433 15.383-21.008-4.652-46.297-4.953-67.297-.969zm2.41-10.746c15.645-1.219 28.332-2.496 44.27-1.152 56.058 4.718 18.703 27.996 108.312-50.551 24.891-21.817 24.188-26.399 36.789-37.734 11.66-10.485 15.578-15.247 24.559-25.833 12.152-14.324 65.261-66.789 71.789-76.937 16.527-25.688-8.543-59.527-39.551-49.176-13.762 4.598-17.715 14.696-27.305 23.012a2318.92 2318.92 0 00-26.882 23.66l-25.356 24.945c-12.621 11.047-20.062 22.102-28.207 18.746-1.797-8.359 56.098-57.761 73.758-76.328 10.68-11.226 22.293-25.636 3.305-48.179-34.032-40.391-74.137 13.757-87.313 24.113-14.512 11.406-35.707 37.637-48.715 37.484.098-11.871 4.528-9.254 21.192-26.547l51.578-46.8c6.113-14.418-2.672-29.774-10.516-36.836-27.312-24.606-59.797 12.008-93.711 38.168-6.996 5.398-21.508 18.765-30.289 18.562-2.101-11.637 3.938-10.648 24.602-26.715 25.933-20.16 58.918-36.132 37.593-54.632-12.714-11.036-28.898.336-38.277 7.71 2.711 58.778-36.258 37.399-49.863 34.579 7.773 20.867.933 42.054-15.203 50.097-21.504 10.723-40.286-4.898-52.493-12.019 4.18 25.152.153 47.609-22.605 52.496-28.324 6.082-46.879-16.356-57.816-23.254 1.132 22.219-3.672 35.851-19.829 43.559-20.71 9.882-35.585-3.868-49.492-8.817-14.468 21.195-58.488 39.395-91.847 47.305l91.597 237.847c21.707-6.765 40.301-17.558 67.297-13.488 17.305 2.61 81.934 35.375 120.402 47.539 25.012 7.914 39.45 16.762 64.684 5.141-16.726-13.461-74.621-31.801-99.344-47.043-17.586-10.844-45.066-66.453-56.968-89.559-9.793-19.027-18.399-32.648-.125-48.89 53.793-47.821 120.617 39.632 129.98 65.527zm290.559-180.398c16.371 6.242 38.293 26.199 47.777 38.785 15.871 21.066 3.906 16.461 58.215 27.636l-68.348 245.024c-44.238-1.098-103.355-29.578-146.332-19.082-25.308 6.18-52.133 7.355-75.437 13.113-63.84 15.766-53.953-3.902-71.321 1.02-11.894 3.367-14.785 10.664-34.625 9.91-30.98-1.18-144.898-56.223-159.32-58.684-32.836-5.601-45.195 10.516-71.422 14.496-9.277-11.859-97.797-246.875-98.289-252.843 8.109-6.368 40.785-16.317 53.399-20.946 17.046-6.261 36.183-18.57 43.093-29.453-5.508-9.308-12.777-16.574-16.254-29.996-9.714-37.516 19.422-71.848 68.25-38.551-5.488-26.523-2.859-49.433 20.301-55.613 24.75-6.602 44.281 11.664 55.906 20.23-4.304-56.12 37.524-53.925 69.133-31.668.094-23.894 7.805-40.89 34.094-36.632 21.027 3.402 29.894 20.175 39.164 31.722 12.449-5.625 19.961-14.965 37.516-10.023 11.074 3.121 18.027 13.656 20.132 25.574 35.883-14.46 67.274 2.863 67.313 41.11 39.269-11.32 70.18 7.636 71.066 47.785 23.762-7.621 41.782-7.754 57.059 10.957 19.383 23.734 3.113 45.316-1.07 56.129"/><path id="path18" d="M15.23 265.715l104.83 271.328c15.738-3.32 40.504-14.949 56.738-21.09 20.922-7.918 44.141-10.433 33.324-37.164-15.285-37.793-29.578-76.109-44.34-114.18-72.289-186.394-32.894-130.281-150.55-98.894zm-12.593-6.09c46.066-8.848 105-57.152 123.629-23.336l48.425 124.477c8.18 21.582 16.317 41.558 24.903 63.839 31.898 82.743 39.008 77.532-22.367 101.625-16.481 6.469-47.622 20.68-62.887 23.438L2.637 259.625"/><path id="path20" d="M895.539 567.656l75.484-270.461c-18.449-3.031-40.578-9.773-58.48-14.285-51.094-12.867-37.848-25.867-79.109 124.106-40.762 148.121-49.274 132.851 3.328 145.832 19.152 4.726 39.801 11.207 58.777 14.808zm5.285 11.524c-20.867-4.45-43.613-10.672-64.5-16.051-22.246-5.731-48.32-6.879-46.801-33.305.649-11.355 13.727-52.097 17.45-65.105 9.535-33.305 46.586-175.168 53.285-186.606 16.305-27.828 70.664 3.758 122.199 11.754-1.758 17.422-78.664 285.481-81.633 289.313"/><path id="path22" d="M903.227 342.813c11.777-7.438 12.226-26.055 6.07-35.125-9.977 8.304-14.707 25.265-6.07 35.125zm-6.649 6.644c-18.73-16.477.668-59.371 18.172-49.949 19.852 10.687 1.711 67.437-18.172 49.949"/></g></g></svg>