<svg id="Слой_1" data-name="Слой 1" xmlns="http://www.w3.org/2000/svg" viewBox="0 0 96 91.91"><defs><style>.cls-1{fill:none;stroke:#000;stroke-miterlimit:10;stroke-width:3.68px;}.cls-2{fill:#f41919;}</style></defs><title>icons</title><rect x="61.59" y="66.56" width="29.91" height="10.65" rx="2.14" transform="translate(73.25 -33.07) rotate(45)"/><circle class="cls-1" cx="47.07" cy="44.79" r="20.46"/><path d="M21.45,77H19.33a37.75,37.75,0,0,1-5-.46,36.49,36.49,0,0,1-6.93-1.68A27.83,27.83,0,0,1,2.76,72.7,3.07,3.07,0,0,1,1.22,70a1,1,0,0,1,0-.15.89.89,0,0,1-.12-.45V68a.93.93,0,0,1,.11-.44,7.11,7.11,0,0,1,4-6.36A24.73,24.73,0,0,1,12,59a7.43,7.43,0,0,0,2.7-1,1.51,1.51,0,0,0,.71-1c0-.19-.07-.36-.33-.75l-.11-.17a13.3,13.3,0,0,1-2.06-5.13,7.68,7.68,0,0,1-2-3.09,3.49,3.49,0,0,1-.18-1.55A1.43,1.43,0,0,1,11.4,45a13.42,13.42,0,0,1,.26-5.94,6.87,6.87,0,0,1,3.25-4,10.14,10.14,0,0,1,5.57-1.32,10.46,10.46,0,0,1,3.71.82,1.37,1.37,0,0,1,.8.75,1.4,1.4,0,0,1-.12,1.11,18.72,18.72,0,0,0-1.7,5.47,24.52,24.52,0,0,0-.24,5.27,23.22,23.22,0,0,0,1,5.71,19.24,19.24,0,0,0,2.18,4.88c.5.77,1,1.52,1.56,2.28l.23.33a1.29,1.29,0,0,1-.06,1.75c-.32.35-.61.74-.9,1.12l-.19.26a5.7,5.7,0,0,0-1,2.94l-.07.54a7.47,7.47,0,0,0-.11,1.6l0,.29A9.73,9.73,0,0,0,26.19,72a3.06,3.06,0,0,0,1.33,1.28l.22.13a7.57,7.57,0,0,0,1.5.77,1.12,1.12,0,0,1,.84,1,1.15,1.15,0,0,1-.69,1.13,2.48,2.48,0,0,1-1.23.29c-.79,0-1.43.11-2.07.18s-1.27.12-1.9.16C23.27,77,22.35,77,21.45,77ZM3,69a1.43,1.43,0,0,1,.12.84c0,.79.3,1.05.59,1.22a26.57,26.57,0,0,0,4.36,2,35.39,35.39,0,0,0,6.59,1.6,36.44,36.44,0,0,0,4.74.44h.41c1.42,0,2.88,0,4.31-.06.61,0,1.23-.1,1.84-.17l.65-.06,0,0a4.65,4.65,0,0,1-2-2.12,11.37,11.37,0,0,1-.69-3.65l0-.29a9.85,9.85,0,0,1,.12-2l.07-.51a7.58,7.58,0,0,1,1.34-3.84l.19-.25c.24-.33.49-.65.75-1l-.06-.07c-.54-.78-1.09-1.55-1.6-2.35a20.91,20.91,0,0,1-2.39-5.33A24.82,24.82,0,0,1,21.1,47.3a25.56,25.56,0,0,1,.26-5.66A20.77,20.77,0,0,1,23,36.13a8.11,8.11,0,0,0-2.56-.5,8.3,8.3,0,0,0-4.6,1.07,5,5,0,0,0-2.41,2.94,12.12,12.12,0,0,0-.15,5.47,1.22,1.22,0,0,1-.79,1.47,1.44,1.44,0,0,0,.06.58A5.75,5.75,0,0,0,14,49.48a2,2,0,0,1,.7,1.16,11.38,11.38,0,0,0,1.78,4.42,3,3,0,0,1,.7,2.3,3.31,3.31,0,0,1-1.46,2.11,8.92,8.92,0,0,1-3.34,1.28,23.78,23.78,0,0,0-6.23,2.07,5.25,5.25,0,0,0-3.07,4.83,1.12,1.12,0,0,1-.11.71ZM1.52,70.11h0Z"/><path d="M88.44,72.29a1.3,1.3,0,0,1-1-.47l-.25-.3a3,3,0,0,0-.29-.33c-2.77-2.64-5.5-5.39-8.15-8.06-1.52-1.52-3-3.05-4.56-4.56a5.72,5.72,0,0,0-3.58-1.79l-.25,0c-.69-.16-1.19-.28-1.43-.82a1.52,1.52,0,0,1,.24-1.4l.09-.16a23,23,0,0,0,2.11-6.48l.06-.32a12.29,12.29,0,0,0,.38-3.24l0-.67a22.35,22.35,0,0,0-1.12-6.78l-.39-.95c-.35-.86-.71-1.75-1-2.69a1,1,0,0,1,.13-.8.93.93,0,0,1,.71-.38c.38,0,.76-.06,1.13-.1A11.4,11.4,0,0,1,73,31.83a8,8,0,0,1,3.39.78l.54.24a14.6,14.6,0,0,0,2.25.89,4.86,4.86,0,0,1,2.23,1.55A6.8,6.8,0,0,1,83.18,39a9.85,9.85,0,0,1,.08,3,4.57,4.57,0,0,0,0,1h0l.15.12a1.29,1.29,0,0,1,.34,1,6.71,6.71,0,0,1-.57,3.22,3.13,3.13,0,0,1-.93,1.1c-.38.28-.48.72-.63,1.46a9.6,9.6,0,0,1-1.89,4.67.66.66,0,0,0-.17.54,1.16,1.16,0,0,0,.53.77,8.25,8.25,0,0,0,2.65,1l1.24.32a30.41,30.41,0,0,1,4.79,1.49,7.27,7.27,0,0,1,4.49,4.51,12.77,12.77,0,0,1,.26,5.33,2.8,2.8,0,0,1-1.06,1.79,8.36,8.36,0,0,1-3.68,1.9A1.76,1.76,0,0,1,88.44,72.29ZM71,55a7.5,7.5,0,0,1,4.46,2.28l4.57,4.57c2.64,2.66,5.37,5.4,8.12,8,.16.16.3.33.44.5l0,0a6.62,6.62,0,0,0,2.61-1.46,1.11,1.11,0,0,0,.41-.59,11,11,0,0,0-.2-4.58C91,62.29,90,61.25,88,60.41A27.86,27.86,0,0,0,83.5,59l-1.21-.32A10,10,0,0,1,79,57.43a3,3,0,0,1-1.32-2,2.5,2.5,0,0,1,.59-2,8,8,0,0,0,1.49-3.82A3.77,3.77,0,0,1,81.13,47a1.16,1.16,0,0,0,.36-.42,4.65,4.65,0,0,0,.39-2.12l-.13-.1a1.09,1.09,0,0,1-.35-.82V43a6.89,6.89,0,0,1,0-1.35,8.3,8.3,0,0,0-.08-2.47A4.93,4.93,0,0,0,80,36.54a3.17,3.17,0,0,0-1.35-1,15.62,15.62,0,0,1-2.54-1l-.52-.24A6.46,6.46,0,0,0,73,33.67a7.71,7.71,0,0,0-1.54.11h0c.18.48.37.95.57,1.45l.39,1a23.76,23.76,0,0,1,1.25,7.33l0,.66a13.86,13.86,0,0,1-.42,3.73l-.06.31A25.24,25.24,0,0,1,71,55ZM82.52,44.6Zm-.13-1.83h0Z"/><path d="M26.23,29.18a.88.88,0,0,1-.27,0,1.44,1.44,0,0,1-.92-1,21.37,21.37,0,0,1-1.39-4,.74.74,0,0,0-.25-.34,6.08,6.08,0,0,1-2-4,1.65,1.65,0,0,1,.26-1.3,1.33,1.33,0,0,1,.5-.41A18.3,18.3,0,0,1,22,15a7.7,7.7,0,0,1,3.62-6.7,8.13,8.13,0,0,1,4.43-1.33,10.75,10.75,0,0,1,4.06.44,11.66,11.66,0,0,1,1.51.68,5.45,5.45,0,0,0,1.12.44A8.38,8.38,0,0,1,38,9a6.73,6.73,0,0,1,3.57,4.6,9,9,0,0,1,.21,2.55,5.89,5.89,0,0,1,0,1.4c0,.17,0,.33,0,.49a1.27,1.27,0,0,1,.21.15,1.23,1.23,0,0,1,.37,1c0,.34,0,.68,0,1a1.23,1.23,0,0,1-1.13,1.33A21.9,21.9,0,0,0,33.44,24a20.41,20.41,0,0,0-4,2.71c-.26.22-.5.47-.75.71a11.23,11.23,0,0,1-1.39,1.24A1.73,1.73,0,0,1,26.23,29.18ZM23.3,19.69a4,4,0,0,0,1.26,2.66,2.45,2.45,0,0,1,.88,1.37A19.09,19.09,0,0,0,26.52,27c.32-.29.59-.55.87-.83s.55-.54.84-.8a23,23,0,0,1,4.35-2.95,24.18,24.18,0,0,1,7.82-2.63v-.15a.83.83,0,0,1-.17-.12,1.22,1.22,0,0,1-.4-1,7.45,7.45,0,0,1,.06-1.17,4.05,4.05,0,0,0,0-1,1.15,1.15,0,0,1,0-.19A7,7,0,0,0,39.76,14a4.91,4.91,0,0,0-2.6-3.39,6.76,6.76,0,0,0-1-.36,8.52,8.52,0,0,1-1.47-.59,8.12,8.12,0,0,0-1.24-.56,9.34,9.34,0,0,0-3.38-.33,6.25,6.25,0,0,0-3.43,1A5.87,5.87,0,0,0,23.84,15a15.13,15.13,0,0,0,.25,3.25,1.22,1.22,0,0,1-.16,1A1.09,1.09,0,0,1,23.3,19.69Zm17.62-1.8h0Z"/><path d="M66.44,29.28a1.21,1.21,0,0,1-.4-.07,2,2,0,0,1-.78-.5l-.51-.48-1.06-1a18.82,18.82,0,0,0-3.8-2.82A26.26,26.26,0,0,0,54.76,22a17.41,17.41,0,0,0-3.45-.71,1.19,1.19,0,0,1-1.15-1.17,2.7,2.7,0,0,0,0-.28l0-.28a1.54,1.54,0,0,1,.29-1.21A1.35,1.35,0,0,1,50.8,18a19.08,19.08,0,0,1-.23-3.22,7.85,7.85,0,0,1,2.36-5.61A8.52,8.52,0,0,1,57.22,7a11,11,0,0,1,7.34,1.11,5.69,5.69,0,0,0,.82.29,6.35,6.35,0,0,1,1.13.41,6.64,6.64,0,0,1,3.72,5,9.43,9.43,0,0,1,.08,1.47,7.22,7.22,0,0,0,0,.93.54.54,0,0,1,0,.18,7.3,7.3,0,0,0,0,.81c0,.23,0,.48,0,.74a1.11,1.11,0,0,1,.48.92A6.9,6.9,0,0,1,70,22.72a2.13,2.13,0,0,1-.72.77c-.35.21-.43.57-.54,1.33a14.76,14.76,0,0,1-1.19,3.69A1.16,1.16,0,0,1,66.44,29.28ZM52,19.55a17.86,17.86,0,0,1,3.31.73,27.58,27.58,0,0,1,5.49,2.53A20.88,20.88,0,0,1,65,25.91l1,1,.12.12a10.4,10.4,0,0,0,.74-2.45,3.29,3.29,0,0,1,1.42-2.65s0-.09.09-.16A4.52,4.52,0,0,0,69,19.5a.84.84,0,0,1-.31-.25,1.18,1.18,0,0,1-.22-.91,4.55,4.55,0,0,0,0-1.06c0-.32,0-.63,0-.94a9,9,0,0,1,0-1,6.34,6.34,0,0,0-.06-1.15,4.8,4.8,0,0,0-2.73-3.67,4.7,4.7,0,0,0-.82-.29,6.5,6.5,0,0,1-1.12-.4,9.14,9.14,0,0,0-6.15-.95,6.51,6.51,0,0,0-3.38,1.66,6,6,0,0,0-1.81,4.35,19.22,19.22,0,0,0,.3,3.38,1.2,1.2,0,0,1-.19,1A1,1,0,0,1,52,19.55ZM69,18.92Z"/><path class="cls-2" d="M31.52,63.48a17.18,17.18,0,0,1,2.18,1.77,19.35,19.35,0,0,0,3.13,2.12A24,24,0,0,0,44.28,70c1,.19,2.1.25,3.15.34a21.76,21.76,0,0,0,2.8,0,23.66,23.66,0,0,0,5.07-.84,21.9,21.9,0,0,0,5.15-2.2c.57-.32.75-.21.8.45a6.38,6.38,0,0,0,.44,1.73,7.27,7.27,0,0,0,1.51,2.27A13.39,13.39,0,0,1,64.41,73c.21.3.12.38-.18.5a39.46,39.46,0,0,1-5.91,1.89c-1.23.27-2.47.49-3.72.64s-2.75.2-4.12.32a30,30,0,0,1-4.24-.06A40.16,40.16,0,0,1,38.32,75a30.79,30.79,0,0,1-6.89-2.53,4.43,4.43,0,0,1-1.23-.87A2.49,2.49,0,0,1,29.71,70a17.7,17.7,0,0,1,.18-3.85,4.31,4.31,0,0,1,1.16-2.08A2.6,2.6,0,0,0,31.52,63.48Z"/><path class="cls-2" d="M56,42.09c.08.78-.15,1.56-.1,2.36,0,.23,0,.43.32.38s.27.1.27.29c0,1.45-.16,2.84-1.37,3.9a3.46,3.46,0,0,0-.84,2,11.31,11.31,0,0,1-1,3.26,5.4,5.4,0,0,1-.54.78,1.83,1.83,0,0,0,.08,2.43,3.77,3.77,0,0,0,2.11,1.06c.12,0,.25,0,.26.19a.29.29,0,0,1-.21.32,30.48,30.48,0,0,1-3.23,1.34,19.83,19.83,0,0,1-3.52.64,13.43,13.43,0,0,1-3,0,14.62,14.62,0,0,1-4.62-1.26,6.39,6.39,0,0,0-1-.47c-.31-.09-.28-.26-.05-.4a14.63,14.63,0,0,1,1.39-.79A3.77,3.77,0,0,0,42,57.2a1.51,1.51,0,0,0,0-1.89,15.31,15.31,0,0,1-2.19-5.18,2,2,0,0,0-.62-1,5.62,5.62,0,0,1-1.67-3.41.74.74,0,0,1,.65-.88c.25,0,.23-.2.2-.34-.1-.61-.15-1.22-.21-1.84a7.82,7.82,0,0,1,1.56-6.15,6.89,6.89,0,0,1,4.34-2.44,10.43,10.43,0,0,1,6.61,1,8.74,8.74,0,0,0,1.32.5,5.49,5.49,0,0,1,3.82,4.2A7.28,7.28,0,0,1,56,42.09Z"/></svg>