<svg id="Слой_1" data-name="Слой 1" xmlns="http://www.w3.org/2000/svg" viewBox="0 0 96 91.91"><defs><style>.cls-1{fill:#f41919;}</style></defs><title>icons</title><path d="M82.88,12.13H65.66a3.54,3.54,0,0,0-3.54,3.54v9.49a3.54,3.54,0,0,0,3.54,3.54h3.85L67,37.15,79.42,28.7h3.46a3.55,3.55,0,0,0,3.54-3.54V15.67A3.55,3.55,0,0,0,82.88,12.13Zm1.82,13A1.83,1.83,0,0,1,82.88,27h-4L70,33l1.77-6H65.66a1.83,1.83,0,0,1-1.82-1.82V15.67a1.82,1.82,0,0,1,1.82-1.82H82.88a1.82,1.82,0,0,1,1.82,1.82Z"/><path d="M61.25,63h0a78.66,78.66,0,0,0-8-.9v-.43a12.45,12.45,0,0,0,4.09-3.13H61a3.76,3.76,0,0,0,3.76-3.76V48.69h-.07a2.6,2.6,0,0,0,0-.26V38.89A16.29,16.29,0,0,0,48.41,22.63h-1A16.28,16.28,0,0,0,31.19,38.89v9.78a5.49,5.49,0,0,0,3.21,5l.11,0,.15.09h0a4,4,0,0,0,1.46.33,10.86,10.86,0,0,0,.41,1.15l.08.2a12.31,12.31,0,0,0,2.63,3.82,3.19,3.19,0,0,0,.32.3,11.83,11.83,0,0,0,2.58,1.69v.85c-2.53.18-5,.46-7.39.86a9.15,9.15,0,0,0-9.14,9.14v4h1.73v-4a7.46,7.46,0,0,1,7.55-7.42,78.11,78.11,0,0,1,8-.92l1.34,1.84h0L48,70.75l4.72-7a84.59,84.59,0,0,1,8.41.95,7.42,7.42,0,0,1,7.41,7.41v5.23H41.9V79.1H70.22V72.15A9.1,9.1,0,0,0,61.25,63ZM63,54.8a2,2,0,0,1-2,2H58.52a12.26,12.26,0,0,0,1.2-2.75A5.68,5.68,0,0,0,63,52.46Zm-2.74-3.88V48.09a2.18,2.18,0,0,1,1.34,2,2.24,2.24,0,0,1-1.43,2.08l0-.17h0l0-.13-.43,0,.45-.1,0-.26a1.63,1.63,0,0,0,0-.25l0-.28v-.09A.18.18,0,0,1,60.25,50.92ZM35.37,52.21l-.13-.13h-.12a2.19,2.19,0,0,1,.48-3.89v2.35a11.48,11.48,0,0,0,.12,1.66.53.53,0,0,0,0,.13Zm1.23-9.6-1-.16v4a3.91,3.91,0,0,0-2.69,2v-9.5A14.55,14.55,0,0,1,47.44,24.36h1A14.55,14.55,0,0,1,62.94,38.89v9.56a3.83,3.83,0,0,0-2.69-2.16v-4.1l-1.07.27a8.7,8.7,0,0,1-10.24-5,8.71,8.71,0,0,1-.58-1.77l-.85-3.88-.84,3.88a8.18,8.18,0,0,1-.59,1.77,8.66,8.66,0,0,1-9.49,5.1ZM51.45,62.53l-.27.4L50,64.66h0l-2.09,3.09L44,62.41l-.13-.08v0l0,0,0,0V62a11.27,11.27,0,0,0,3.37.55h1.63a11.65,11.65,0,0,0,2.57-.3Zm1-2.39a9.79,9.79,0,0,1-3.56.67H47.25a9.74,9.74,0,0,1-6.54-2.51l-.23-.21a10.62,10.62,0,0,1-2.31-3.39,10,10,0,0,1-.54-1.63,10.19,10.19,0,0,1-.31-2.53V44.43a10.31,10.31,0,0,0,10.2-5.91,10.36,10.36,0,0,0,11,5.82v6.35L58.43,52l0,.2c0,.2-.07.4-.12.62l-.07.29a10.34,10.34,0,0,1-1.77,3.69H48.56v1.72h6.28A10.38,10.38,0,0,1,52.44,60.14Z"/><rect x="67.39" y="17.02" width="14.37" height="1.72"/><rect x="66.78" y="21.97" width="10.26" height="1.72"/><rect x="79.94" y="21.97" width="1.81" height="1.72"/><path d="M29.18,21c12.74-8.21,26.07-4.49,28.6-3.66l.54-1.64c-2.68-.86-16.68-4.77-30.07,3.85C17.57,26.45,14,37.06,12.85,42.09l-2.23-4L9.12,39l3,5.31L13,45.8,14,45.14l5.21-3-.87-1.5-4,2.32C15.38,38.4,18.66,27.81,29.18,21Z"/><path d="M84.92,40l-3.77-3a37.41,37.41,0,0,1,.93,18.13A38,38,0,0,1,75,70.7l-1.38-1.06a35.64,35.64,0,0,0,5.59-33l-2.69,5L75,40.78l4.11-7.52,1,.76L82,35.47l4,3.12Z"/><polygon class="cls-1" points="41.98 84.95 41.4 85.55 45.3 81.64 35.95 72.29 32.52 75.72 41.98 84.95"/><polygon class="cls-1" points="20.88 64.36 20.87 64.37 24.45 60.79 15.43 51.76 11.74 55.45 20.88 64.36"/><path class="cls-1" d="M31.3,77l.61-.63h0a3.73,3.73,0,0,1-5.28,0l-6.22-6.22a3.73,3.73,0,0,1-.05-5.21l-.68.7-9.15-8.93.62-.63-.65.65a9.61,9.61,0,0,0,0,13.59L26.8,86.57a9.6,9.6,0,0,0,13.58,0l.39-.39Z"/></svg>