<svg xmlns:svg="http://www.w3.org/2000/svg" xmlns="http://www.w3.org/2000/svg" viewBox="0 0 300 301.333" height="301.333" width="300" xml:space="preserve" id="svg2" version="1.1"><g transform="matrix(1.33333 0 0 -1.33333 0 301.333)" id="g10"><g transform="scale(.1)" id="g12" fill-opacity="1" fill-rule="evenodd" stroke="none"><path id="path14" d="M2034.41 1968.33h71.39l.02-71.55h-72.11l.55 41.72zm73.36 76.66h-433.04l1.25 61.23h428.5zm-436.17-76.66h287.17l-.29-71.55H1671.4zm574.38-149.78v371.39c-48.57 63.21-16.43 25.02-78.55 68.56h-565.48c-43.88-35.47-73.13-38.52-76.71-119.45-17.06-385.72 3.74-387.62 205.53-387.62-4.98-32.49-10.37-63.61-16.21-93.36-30.47-155.13 80.48-61.68 132.24-30.27 119.81 72.71 158.28 122.63 269.31 123.72 95.39.93 85.81 17.44 129.87 67.03" fill="#e60910"/><path id="path16" d="M782.023 372.074L944.766 204.75l49.609 42.379-158.051 161.73-54.301-36.785" fill="#e60910"/><path id="path18" d="M198.695 950.715l164.391-162.699 37.797 37.242-162.211 164.394-39.977-38.937" fill="#e60910"/><path id="path20" d="M836.324 408.859l158.051-161.73-49.609-42.379-162.743 167.324zm-289.703 39.637c28.074 196.883 157.652 207.133 378.984 241.543 45.766 7.113 45.063-1.437 72.114-29.437 41.311-42.75 81.421-77.782 118.261-121.09 50.27 33.195 94.53 95.328 142.81 136.996 30.84 26.605 44.78 14.594 99.38 4.449 277.52-51.578 281.89-26.805 363.67-308.32-144.3-15.215-363.46-2.422-515.86-2.422-187.3 0-217.152-53.297-366.179 140.508-33.985-16.106-18.531-11.602-54.184-41.68-163.07-137.547-111.277-145.563-238.996-20.547zm345.766-293.59c-97.344-88.293-179.246-114.43-292.547-2.586L149.531 602.051c-100.664 100.39-107.66 217.054-2.222 295.828L307.305 738.5c-49.512-131.633-42.688-109.398 138.73-290.008C582.391 312.746 607.313 245.363 727.52 318.066zm124.093 592.578c32.6-3.382 75.79-16.445 109.81-13.757l99.18 12.851-105.51-104.086zM238.672 989.652l162.211-164.394-37.797-37.242-164.391 162.699zM1455.1 950.289c2.16 10.445 13.14 54.811 16.76 62.111 12.89 26.05 15.05 20.53 51.43 28.75l-12.62-77.146c-24.38-15.762-17.14-12.078-55.57-13.715zM828.594 1276.39c146.414 39.61 191.676 41.13 284.886 131.09 40.03-15.27 31.7-21.65 65.7-45.8 82.93-58.91 156.37-60.95 232.97-86.5-1.69-132.47 14.99-211.32-40.31-324.067l-250.68-.386 1.19-71.067 183.86-.93c-97.26-101.507-266.89-88.894-374.702-4.613-111.031 86.801-100.258 226.613-102.914 402.273zm654.766-49.1c41.03-24.5 59.69-78.16-1.06-115.46zm-727.184-116.33c-42.719 31.18-53.629 90.93 2.293 116.7l.375-39.16.535-40.04zm-30.199 188.06c-20.196 52.51-8.75 156.99 4.156 215.43 92.562 419.15 769.267 438.59 790.787-116.01 3.21-82.46 5-79.36-14.94-99.06-44.82 23.35-9.8.22-30 48.89-299.42 23.01-245.31 105.86-362.62 161.25-75.5-96.64-170.876-152.71-347.383-160.4-22.895-49.14 18.828-34.09-40-50.1zM711.254 8.5h69.133c95.105 48.668 16.843-24.742 168.89 96.668 46.786 37.363 64.573 74.379 148.183 130.324-13.63 35.035-22.06 37.696-48.48 60.004l773.18 3.391c-123.67 343.484-68.81 415.051-522 463.488 26.84 70.652 68.16 41.086 104.3 116.945 215.66 3.114 186.6 55.7 186.59 259.18 0 128.89 13.08 308.59-20.73 423.76-57.93 197.38-282.7 385.96-558.66 320.22-266.367-63.44-362.59-264.43-361.879-513.97.289-101.09-19.765-225.89 33.789-292.17 56.11-69.44 52.227 14.12 102.567-117.606C842.664 810.824 919.691 823.48 936.973 768.5c-114.282-52.895-284.024-5.812-392.723-138.43-33.523-40.894-38.227-74.953-58.391-118.293-210.078 187.27-139.07 139.727 16.957 315.043-38.714 45.446-225.386 239.56-266.839 263.3-53.184-37.7-205.891-186.073-226.555-275.015-41.086-176.882 94.113-271.515 162.773-340.375 55.235-55.39 387.098-398.18 448.16-432.066C652.426 24.867 684.742 21.72 711.254 8.5" fill="#000"/><path id="path22" d="M126.484 1369.01L63.77 1475.92c-29.008-14.01-37.903-14.89-58.32-37.42 31.445-68.82 85.952-140.25 122.128-207.39 47.977 25.9 170.555 92.96 207.66 127.39-9.55 25.66-18.867 33.61-32.07 56.84l-94.086-53.08c3.856 94.58 109.867 275.32 151.445 331.8 138.735 188.46 367.543 333.95 608.375 370.87 259.528 39.8 336.818-24.13 432.668-23.04l16.95 56.4c-28.17 18.56-67.45 25.03-101.22 31.1-35.57 6.38-76.71 12.91-115.19 16.62-427.915 41.28-813.43-201.29-1000.876-583.03-27.586-56.18-51.308-154.31-74.75-193.97" fill="#000"/><path id="path24" d="M1894.96 1365.49l64.25-31.06 54.03 96.69c23-24.32 30.12-74.22 36.82-108.26 41.01-208.39 14.26-415.063-75.93-602.981-35.57-74.117-79.52-120.016-109.83-181.383 26.49-24.168 20.09-27.777 51.68-38.242 77.22 74.312 168.07 269.836 197.43 400.793 49.9 222.503 24.79 342.903-21.84 550.063 43.13-18.29 62.96-39.76 104.41-51.46 21.7 28.23 23.93 27.31 33.59 61.07-72.66 29.19-140.85 92.46-214.61 119.26-24.69-69.48-93.41-144.1-120-214.49" fill="#000"/><path id="path26" d="M2107.77 2044.99l-3.29 61.23h-428.5l-1.25-61.23h433.04" fill="#000"/><path id="path28" d="M1671.4 1896.78h287.08l.29 71.55H1671.6l-.2-71.55" fill="#000"/><path id="path30" d="M2034.26 1938.5l-.55-41.72h72.11l-.02 71.55h-71.39l-.15-29.83" fill="#000"/><path id="path32" d="M2245.98 2189.94v68.56h-78.55c62.12-43.54 29.98-5.35 78.55-68.56" fill="#fffbf2"/></g></g></svg>