<svg width="18" height="18" viewBox="0 0 18 18" fill="none" xmlns="http://www.w3.org/2000/svg">
<path d="M12.3787 0H5.62126C2.51163 0 0 2.51163 0 5.62126V12.3787C0 15.4884 2.51163 18 5.62126 18H12.3787C15.4884 18 18 15.4884 18 12.3787V5.62126C18 2.51163 15.4884 0 12.3787 0ZM16.3056 12.3787C16.3056 14.5515 14.5316 16.3056 12.3787 16.3056H5.62126C3.44851 16.3056 1.69435 14.5316 1.69435 12.3787V5.62126C1.69435 3.44851 3.46844 1.69435 5.62126 1.69435H12.3787C14.5515 1.69435 16.3056 3.46844 16.3056 5.62126V12.3787Z" fill="black"/>
<path d="M8.99003 4.505C6.49833 4.505 4.48505 6.51829 4.48505 9.00999C4.48505 11.5017 6.49833 13.515 8.99003 13.515C11.4817 13.515 13.495 11.5017 13.495 9.00999C13.495 6.51829 11.4817 4.505 8.99003 4.505ZM8.99003 11.8007C7.43521 11.8007 6.1794 10.5449 6.1794 8.99006C6.1794 7.43524 7.43521 6.17942 8.99003 6.17942C10.5448 6.17942 11.8007 7.43524 11.8007 8.99006C11.8206 10.5449 10.5448 11.8007 8.99003 11.8007Z" fill="black"/>
<path d="M13.8338 4.76413C14.1641 4.76413 14.4319 4.49639 14.4319 4.16612C14.4319 3.83585 14.1641 3.56812 13.8338 3.56812C13.5036 3.56812 13.2358 3.83585 13.2358 4.16612C13.2358 4.49639 13.5036 4.76413 13.8338 4.76413Z" fill="black"/>
</svg>
