<svg width="160" height="46" viewBox="0 0 160 46" fill="none" xmlns="http://www.w3.org/2000/svg">
<path fill-rule="evenodd" clip-rule="evenodd" d="M38.4947 10.5237C39.2179 10.9703 39.5516 11.6402 39.5516 12.5333C39.5516 19.232 39.5516 25.9864 39.5516 32.6851C39.5516 33.5782 39.2179 34.2481 38.4947 34.6947C32.5981 38.0998 26.7015 41.505 20.8606 44.9101C20.1374 45.3567 19.3586 45.3009 18.5798 44.8543C12.7388 41.4491 6.89789 38.0998 1.05694 34.6947C0.333769 34.2481 0 33.5782 0 32.6851V12.5333C0 11.6402 0.333769 10.9703 1.05694 10.5237C6.89789 7.11861 12.7388 3.76929 18.5798 0.364148C19.3586 -0.0824281 20.0818 -0.13825 20.8606 0.308326C26.7015 3.71347 32.5981 7.11861 38.4947 10.5237Z" fill="#ED1C24"/>
<path d="M48.8554 26.3214C47.1309 26.3214 45.6846 26.3214 44.0714 26.3214C43.9601 34.9179 59.8142 34.8063 59.8142 26.5447C59.8142 21.6323 56.0314 21.0741 52.1931 20.6833C50.413 20.4601 48.9667 20.1809 49.1335 18.7296C49.3004 16.3851 54.5295 16.1618 54.5295 18.7854C56.254 18.7854 57.5334 18.7854 59.2579 18.7854C59.3691 10.3563 44.2383 10.3563 44.4052 18.7854C44.4608 23.0279 47.2422 24.4792 51.4699 24.8142C53.4169 24.9258 55.0301 25.2607 55.0301 26.6005C54.9189 28.8334 48.8554 28.8334 48.8554 26.3214ZM65.4326 17.2224V32.2943C67.1014 32.2943 68.7147 32.2943 70.3835 32.2943V17.2224H75.1119C75.1119 15.7152 75.1119 14.208 75.1119 12.7566H60.6486C60.6486 14.208 60.6486 15.7152 60.6486 17.2224H65.4326ZM87.2945 24.0885L93.8586 13.4823V12.7566H88.4627L84.9025 19.2878H84.6799L81.1754 12.8124H75.8351V13.5381L82.3436 24.1443V32.3501H87.2945V24.0885ZM100.701 12.7566C99.032 12.7566 97.3632 12.7566 95.6943 12.7566V32.2943C99.6439 32.2943 103.76 32.2943 107.766 32.2943C107.766 30.6197 107.766 29.5032 107.766 27.7727H100.701C100.701 19.5111 100.701 22.8604 100.701 12.7566ZM116.11 27.9402V17.1107H118.391V12.7566H108.934V17.1107H111.215V27.9402H108.711V32.2943H118.613V27.9402H116.11ZM136.025 32.2943H137.805V12.7566C136.08 12.7566 134.412 12.7566 132.743 12.7566V22.3022L122.896 12.645H121.061V32.2385C122.73 32.2385 124.454 32.2385 126.234 32.2385V22.6929L136.025 32.2943ZM140.697 22.5255C140.697 29.2241 145.704 32.5176 150.711 32.5176C154.271 32.5176 157.998 30.9546 159.389 26.8796C160.056 24.9816 160.056 23.0837 159.945 21.1299H150.711V25.4282H154.883C153.993 27.2703 152.713 27.8286 150.711 27.8286C147.762 27.8286 145.871 25.7073 145.871 22.4696C145.871 19.4553 147.595 16.9991 150.711 16.9991C152.658 16.9991 153.937 17.669 154.771 19.3436H159.667C158.721 14.4871 154.605 12.4775 150.711 12.4217C145.76 12.5333 140.753 15.8827 140.697 22.5255Z" fill="white"/>
<path d="M17.6898 25.3725C22.6407 22.0232 21.25 12.7567 13.5733 12.7567C10.7362 12.7567 7.84357 12.7567 5.00653 12.7567C5.00653 19.2879 5.00653 25.7632 5.00653 32.2944C6.61975 32.2944 8.34422 32.2944 10.0131 32.2944V26.5447H12.572L15.9097 32.2944H21.4725V31.5687L17.6898 25.3725ZM13.5733 22.1348H10.0131C10.0131 20.5718 10.0131 18.8413 10.0131 17.2783C11.1813 17.2783 12.4051 17.2783 13.5733 17.2783C16.4103 17.2783 16.2434 22.1348 13.5733 22.1348ZM34.9901 12.7567C30.4286 12.7567 27.3134 12.7567 22.8075 12.7567C22.8075 19.2321 22.8075 25.7632 22.8075 32.2944C27.3134 32.2944 30.6511 32.2944 35.2126 32.2944C35.2126 30.7872 35.2126 29.28 35.2126 27.8287C32.2643 27.8287 30.5955 27.8287 27.7584 27.8287C27.7584 26.6564 27.7584 25.54 27.7584 24.3677H34.3782C34.3782 22.9163 34.3782 21.4091 34.3782 19.9019H27.7584V17.1667C30.5955 17.1667 32.0418 17.1667 34.9901 17.1667C34.9901 15.7153 34.9901 14.2081 34.9901 12.7567Z" fill="white"/>
</svg>
