<svg id="Слой_1" data-name="Слой 1" xmlns="http://www.w3.org/2000/svg" viewBox="0 0 96 91.91"><defs><style>.cls-1{fill:#f41919;}</style></defs><title>icons</title><rect class="cls-1" x="48.65" y="29.01" width="1.45" height="13.72" transform="translate(-10.85 45.76) rotate(-45.33)"/><rect class="cls-1" x="47.23" y="30.66" width="1.45" height="13.28" transform="translate(-12.29 45.18) rotate(-45.33)"/><rect class="cls-1" x="45.68" y="32.15" width="1.45" height="13.28" transform="translate(-13.8 44.53) rotate(-45.33)"/><path d="M59.52,3.08A23.19,23.19,0,0,0,37.62,37l-6.43,6.55A7.49,7.49,0,0,0,29.06,49a4.29,4.29,0,0,0-.72.57L16,62.15a4.26,4.26,0,0,0,0,5.9l.07.06-.45.54a1.2,1.2,0,0,0-.26,1,9.5,9.5,0,0,0-2.52,4,7.82,7.82,0,0,0-.15,4.93c.68,2,2.25,3.11,5.38,5.35l1.4,1c1.55,1.05,2.19,1.51,2.48,2.45a3.72,3.72,0,0,1-.06,2.28l1.39.41a5.24,5.24,0,0,0,.05-3.13c-.46-1.45-1.49-2.15-3.05-3.21l-1.37-1C16,80.67,14.54,79.64,14,78.09a6.37,6.37,0,0,1,.17-4,8.18,8.18,0,0,1,2.15-3.41,1.25,1.25,0,0,0,1.16-.4l.33-.4a4.22,4.22,0,0,0,5.8-.22L36,57.05a3.44,3.44,0,0,0,.55-.72h0a7.53,7.53,0,0,0,5.37-2.24l6.63-6.76a23,23,0,0,0,8.22,2.06c.48,0,1,0,1.42,0A23.2,23.2,0,0,0,59.52,3.08ZM43,25.33a15.2,15.2,0,0,1,30.34,1.81h0A15.23,15.23,0,0,1,57.24,41.4,15,15,0,0,1,54.72,41l4.55-4.64a10.28,10.28,0,0,0,9.1-9.56h0a10.24,10.24,0,0,0-20.45-1.22c0,.3,0,.59,0,.89l-4.26,4.34A15.11,15.11,0,0,1,43,25.33Zm18.53-1.94a6.66,6.66,0,0,0-1.14-.92,7.21,7.21,0,0,0-3.76-1.2c-.12,0-.24,0-.35,0h-.08a7.49,7.49,0,0,0-5.29,2.25L49.44,25a8.8,8.8,0,0,1,17.49,1.8,8.86,8.86,0,0,1-5.8,7.75l.49-.5a7.51,7.51,0,0,0-.11-10.62ZM25.45,60.68c-1.06-1.09-2.11-2.17-3-3.06l1.36-1.39L26.53,59c1,1,1.91,2,2.75,2.8l-1.37,1.39Zm1.45,3.55-1.54,1.56-2.82-2.88-2.63-2.69,1.53-1.57c.88.88,1.93,2,3,3ZM27.57,58c-1-1-1.9-2-2.74-2.79l1.79-1.82,2.75,2.81c.94,1,1.87,1.91,2.71,2.76l-1.79,1.82ZM18.75,68.76l-1.66-1.61L17,67.07a2.79,2.79,0,0,1-.67-2.75L19,67l2.34,2.4A2.77,2.77,0,0,1,18.75,68.76Zm3.83-.14L20,66c-1-1-2-2-2.86-2.91l1.77-1.8,2.61,2.67c1,1,2,2,2.85,2.9Zm10.51-10.7-2.68-2.74c-1-1-1.94-2-2.78-2.83l1.65-1.68a.43.43,0,0,0,0,0c0,.08.05.14.07.21a6.08,6.08,0,0,0,.34.93c.05.12.11.23.17.35a8,8,0,0,0,.43.75c.07.1.13.2.21.3a6.86,6.86,0,0,0,.78.93,7.62,7.62,0,0,0,.94.76,2.7,2.7,0,0,0,.31.2,6.31,6.31,0,0,0,.76.42l.35.17a7.43,7.43,0,0,0,.94.32,1.17,1.17,0,0,0,.2.06l.05,0Zm7.79-4.85a6.05,6.05,0,0,1-8.58.08,6.46,6.46,0,0,1-.78-.95,6,6,0,0,1-.82-1.81,4.28,4.28,0,0,1-.13-.73c0-.11-.05-.22-.06-.33h0a6,6,0,0,1,1.71-4.74L50.37,26.09h0l1.56-1.59a6.05,6.05,0,0,1,4.28-1.81,5.87,5.87,0,0,1,4.3,1.73,6.65,6.65,0,0,1,.83,1A6.07,6.07,0,0,1,60.59,33l-3.54,3.6h0l-5,5.14h0l-4.85,4.94h0Zm39-25.54A21.76,21.76,0,0,1,49.61,46.24l4-4a16.38,16.38,0,0,0,3.58.64l1,0A16.68,16.68,0,0,0,74.76,27.22h0a16.64,16.64,0,0,0-33.22-2,16.47,16.47,0,0,0,1,6.75l-3.87,3.94a21.74,21.74,0,1,1,41.17-8.4Z"/></svg>