<svg id="Слой_1" data-name="Слой 1" xmlns="http://www.w3.org/2000/svg" viewBox="0 0 96 91.91"><defs><style>.cls-1{fill:#f41919;}</style></defs><title>icons</title><path class="cls-1" d="M56.75,27.68a12.31,12.31,0,0,0-5.55-3.21l.4-.82a8.53,8.53,0,0,0,3.32-4.94c.64-.1,1.14-1,1.14-2a2.13,2.13,0,0,0-.9-1.92c-.54-4.16-3.54-7.36-7.16-7.36s-6.55,3.11-7.14,7.2a2,2,0,0,0-1,1.94c0,1,.51,1.9,1.16,2a8.65,8.65,0,0,0,3.35,5.09l.4.81a12.37,12.37,0,0,0-9.06,10.3H60.26A12.26,12.26,0,0,0,56.75,27.68Z"/><polygon points="36.3 41.15 35.47 41.09 35.36 40.33 35.63 40.29 35.63 39.24 37.13 39.24 37.36 40.81 36.3 40.97 36.3 41.15"/><polygon points="60.37 41.15 59.65 41.15 59.65 40.97 58.59 40.81 58.82 39.24 60.37 39.24 60.37 40.3 60.59 40.33 60.48 41.09 60.37 41.08 60.37 41.15"/><path d="M31,41.15h4.46l2.19,14.59H58.32l2.15-14.59H65V33.82H31Zm1.91-5.43H63.07v3.52H58.82L56.67,53.83H39.31L37.13,39.24h-4.2Z"/><rect x="40.13" y="41.3" width="15.74" height="1.91"/><rect x="40.13" y="46.25" width="15.74" height="1.91"/><path d="M25.13,78.73a13.5,13.5,0,0,0-4.72-3,9.54,9.54,0,0,0,3-4.54,3.09,3.09,0,0,0,1.31-2.72,3.32,3.32,0,0,0-1-2.46c-.75-4.53-4.08-7.77-8-7.77s-7.19,3.16-8,7.57A3.28,3.28,0,0,0,6.64,68.3,3.1,3.1,0,0,0,8,71,9.58,9.58,0,0,0,11,75.71,13.26,13.26,0,0,0,2.49,86.37l-.14,1.08h26.7l-.14-1.08A13.37,13.37,0,0,0,25.13,78.73ZM9.68,70.08l-.13-.61-.63-.1a1.36,1.36,0,0,1-.37-1.07,1.3,1.3,0,0,1,.37-1L9.43,67l.08-.54c.53-3.7,3.14-6.38,6.19-6.38s5.74,2.81,6.22,6.53l.06.51.47.22a1.41,1.41,0,0,1,.36,1.06,1.38,1.38,0,0,1-.35,1.06l-.61.1-.15.6a7.61,7.61,0,0,1-2.94,4.4,6,6,0,0,1-1,.55,5.25,5.25,0,0,1-4.15,0,5.32,5.32,0,0,1-1-.55h0A7.61,7.61,0,0,1,9.68,70.08ZM4.58,85.55a11.38,11.38,0,0,1,7.56-8.25,4.94,4.94,0,0,0,7.13,0,11.43,11.43,0,0,1,7.55,8.25Z"/><path d="M57.43,78.73a13.5,13.5,0,0,0-4.72-3,9.61,9.61,0,0,0,3-4.54A3.12,3.12,0,0,0,57,68.44a3.3,3.3,0,0,0-1-2.46c-.76-4.53-4.08-7.77-8-7.77s-7.19,3.16-8,7.57a3.28,3.28,0,0,0-1.05,2.52A3.08,3.08,0,0,0,40.25,71a9.51,9.51,0,0,0,3.06,4.7,13.26,13.26,0,0,0-8.52,10.66l-.14,1.08h26.7l-.14-1.08A13.43,13.43,0,0,0,57.43,78.73ZM42,70.08l-.14-.61-.62-.1a1.36,1.36,0,0,1-.37-1.07,1.34,1.34,0,0,1,.36-1l.52-.21.08-.54c.53-3.7,3.14-6.38,6.19-6.38s5.74,2.81,6.22,6.53l.06.51.46.22a1.37,1.37,0,0,1,.37,1.06,1.38,1.38,0,0,1-.35,1.06l-.61.1-.16.6a7.55,7.55,0,0,1-2.93,4.4,5.66,5.66,0,0,1-1,.55,5.23,5.23,0,0,1-4.14,0,5.32,5.32,0,0,1-1-.55h0A7.61,7.61,0,0,1,42,70.08Zm-5.1,15.47a11.38,11.38,0,0,1,7.56-8.25,4.93,4.93,0,0,0,7.12,0,11.42,11.42,0,0,1,7.56,8.25Z"/><path d="M93.51,86.37A13.28,13.28,0,0,0,85,75.7a9.47,9.47,0,0,0,3-4.54,3.1,3.1,0,0,0,1.32-2.72,3.3,3.3,0,0,0-1-2.46c-.76-4.53-4.09-7.77-8-7.77s-7.2,3.16-8,7.57a3.24,3.24,0,0,0-1.05,2.52A3.08,3.08,0,0,0,72.55,71a9.56,9.56,0,0,0,3,4.7,13.27,13.27,0,0,0-8.51,10.66l-.15,1.08H93.65ZM74.27,70.08l-.13-.61-.62-.1a1.36,1.36,0,0,1-.37-1.07,1.34,1.34,0,0,1,.36-1L74,67l.08-.54c.53-3.7,3.13-6.38,6.19-6.38s5.74,2.81,6.21,6.53l.07.51.46.22a1.37,1.37,0,0,1,.37,1.06,1.38,1.38,0,0,1-.35,1.06l-.61.1-.16.6a7.64,7.64,0,0,1-2.93,4.4,6,6,0,0,1-1,.55,5.23,5.23,0,0,1-4.14,0,5.32,5.32,0,0,1-1-.55h0A7.66,7.66,0,0,1,74.27,70.08ZM69.18,85.55a11.38,11.38,0,0,1,7.56-8.25,4.93,4.93,0,0,0,7.12,0,11.5,11.5,0,0,1,4.51,2.78,11.37,11.37,0,0,1,3,5.47Z"/></svg>