<svg width="78" height="94" viewBox="0 0 78 94" fill="none" xmlns="http://www.w3.org/2000/svg"><g filter="url(#filter0_d)" fill="#ED1C24"><path d="M38.966 9.507h-.135a1.385 1.385 0 01-1.259-1.377 1.39 1.39 0 011.394-1.394 1.39 1.39 0 011.393 1.394c0 .37-.151.722-.403.99a1.521 1.521 0 01-.99.387z"/><path d="M38.966 85.429c-.135 0-.269-.017-.403-.05-10.122-3.04-18.784-9.121-25.062-17.62C7.273 59.343 4 49.349 4 38.885V11.472a1.39 1.39 0 011.393-1.394c4.784 0 8.679-3.897 8.679-8.684A1.39 1.39 0 0115.465 0h47.001a1.39 1.39 0 011.393 1.394c0 4.787 3.895 8.684 8.679 8.684a1.39 1.39 0 011.393 1.394v27.413c0 10.582-3.34 20.643-9.669 29.092-6.278 8.365-14.872 14.378-24.894 17.385-.134.05-.268.067-.402.067zM16.74 3.04c-.722 5.006-4.717 9.003-9.703 9.709l-.251.033v26.103c0 20.14 12.891 37.675 32.095 43.672l.084.033.084-.033c19.203-5.98 32.095-23.533 32.095-43.672V12.782l-.252-.033c-5.002-.722-8.998-4.72-9.703-9.709l-.033-.252H16.774l-.033.252z"/><path d="M38.966 78.357a1.54 1.54 0 01-.47-.084c-8.226-2.905-15.192-8.163-20.16-15.218-4.986-7.054-7.621-15.42-7.621-24.187V16.78a1.4 1.4 0 01.839-1.277 15.415 15.415 0 007.956-7.961c.219-.504.722-.84 1.276-.84h11.482a1.39 1.39 0 011.393 1.394 1.39 1.39 0 01-1.393 1.394H21.676l-.084.151a17.994 17.994 0 01-7.923 7.929l-.151.084v21.214c0 16.494 9.954 30.856 25.364 36.567l.1.033.101-.033c15.41-5.711 25.364-20.073 25.364-36.567V17.67l-.151-.084a17.994 17.994 0 01-7.923-7.928l-.084-.151H45.697a1.39 1.39 0 01-1.393-1.394 1.39 1.39 0 011.393-1.394h11.482c.554 0 1.057.336 1.275.84a15.415 15.415 0 007.957 7.961 1.4 1.4 0 01.84 1.277v22.088c0 8.768-2.636 17.133-7.622 24.187-4.968 7.038-11.951 12.296-20.16 15.201a1.378 1.378 0 01-.503.084z"/><path d="M38.966 54.187c-8.175 0-14.823-6.652-14.823-14.832s6.648-14.832 14.823-14.832 14.822 6.652 14.822 14.832-6.647 14.832-14.822 14.832zm0-26.875c-6.63 0-12.036 5.408-12.036 12.043 0 6.635 5.405 12.043 12.036 12.043C45.596 51.398 51 45.99 51 39.355c0-6.635-5.388-12.043-12.035-12.043z"/><path d="M37.287 45.788c-.37 0-.722-.15-.99-.403l-3.358-3.36a1.4 1.4 0 010-1.964c.269-.27.621-.404.99-.404.37 0 .723.152.991.404l2.367 2.368 7.403-7.407c.268-.27.62-.404.99-.404s.722.152.99.404a1.4 1.4 0 010 1.965l-8.393 8.398a1.456 1.456 0 01-.99.403z"/></g><defs><filter id="filter0_d" x="0" y="0" width="77.931" height="93.429" filterUnits="userSpaceOnUse" color-interpolation-filters="sRGB"><feFlood flood-opacity="0" result="BackgroundImageFix"/><feColorMatrix in="SourceAlpha" values="0 0 0 0 0 0 0 0 0 0 0 0 0 0 0 0 0 0 127 0"/><feOffset dy="4"/><feGaussianBlur stdDeviation="2"/><feColorMatrix values="0 0 0 0 0.929412 0 0 0 0 0.109804 0 0 0 0 0.141176 0 0 0 0.2 0"/><feBlend in2="BackgroundImageFix" result="effect1_dropShadow"/><feBlend in="SourceGraphic" in2="effect1_dropShadow" result="shape"/></filter></defs></svg>