<svg width="94" height="72" viewBox="0 0 94 72" fill="none" xmlns="http://www.w3.org/2000/svg"><g filter="url(#filter0_d)" fill="#ED1C24"><path d="M62.584 42.06c-.722 0-1.31-.589-1.31-1.31 0-.723.588-1.311 1.31-1.311.722 0 1.31.588 1.31 1.31 0 .722-.588 1.31-1.31 1.31zm-3.559-27.144a1.327 1.327 0 100-2.653 1.327 1.327 0 000 2.653z"/><path d="M88.3 28.807L65.454 15.739c-.62-.353-1.41-.168-1.78.436a1.343 1.343 0 00.47 1.882l20.732 11.858-11.499 5.745-45.34-26.17 3.157-4.501a5.494 5.494 0 014.515-2.352 5.55 5.55 0 012.736.722l14.134 8.08c.621.352 1.41.15 1.78-.437a1.352 1.352 0 00-.454-1.881l-14.15-8.096C38.596.353 37.237 0 35.843 0c-2.719 0-5.32 1.31-6.798 3.427l-9.4 13.454a7.3 7.3 0 00-1.326 4.216c0 2.62 1.41 5.056 3.659 6.366l10.71 6.181-2.166 2.906a7.355 7.355 0 00-1.46 4.384c0 1.529.537 3.057 1.544 4.384l.201.269-3.055 4.602H13.786v-5.862c0-.722-.57-1.293-1.309-1.293H5.309c-.738 0-1.309.57-1.309 1.293v17.939c0 .722.588 1.31 1.31 1.31h7.167c.722 0 1.31-.588 1.31-1.31v-2.268H27.5c3.44 0 6.647-1.713 8.544-4.585l3.122-4.686.319.067c.52.117 1.074.218 1.611.218a7.747 7.747 0 006.597-3.729l2.216-3.678 15.645 9.036c.201.118.42.168.655.168.134 0 .251-.016.369-.05.352-.1.638-.353.806-.672l1.46-2.94.319.017c.1 0 .185.017.285.034.118.017.235.034.336.034 6.647 0 12.053-5.426 12.053-12.077 0-.655-.084-1.36-.27-2.251l-.066-.353 6.781-3.393c.437-.218.705-.655.722-1.142a1.465 1.465 0 00-.705-1.21zM11.134 60.922H6.602V45.637h4.532v15.285zm22.712-6.987a7.632 7.632 0 01-6.362 3.41H13.769v-4.536h13.715a3.11 3.11 0 002.585-1.377l2.736-4.098 3.895 2.334-2.854 4.267zm11.566-8.012c-.89 1.495-2.586 2.418-4.415 2.418-.907 0-1.78-.235-2.518-.688l-4.55-2.721a4.696 4.696 0 01-2.265-3.998c0-1.008.335-1.999.923-2.788l2.367-3.158 12.623 7.29-2.166 3.645zm20.21 3.729l-42.335-24.44a4.74 4.74 0 01-2.35-4.081c0-.975.302-1.899.856-2.705l4.75-6.786 45.073 26.02-5.993 11.993zm5.355-3.175l-.89.117 4.213-8.448 4.751-2.369.067.689c0 .067.017.134.017.202.017.168.033.319.033.487.017 4.703-3.508 8.7-8.191 9.322z"/></g><defs><filter id="filter0_d" x="0" y="0" width="93.005" height="71.576" filterUnits="userSpaceOnUse" color-interpolation-filters="sRGB"><feFlood flood-opacity="0" result="BackgroundImageFix"/><feColorMatrix in="SourceAlpha" values="0 0 0 0 0 0 0 0 0 0 0 0 0 0 0 0 0 0 127 0"/><feOffset dy="4"/><feGaussianBlur stdDeviation="2"/><feColorMatrix values="0 0 0 0 0.929412 0 0 0 0 0.109804 0 0 0 0 0.141176 0 0 0 0.2 0"/><feBlend in2="BackgroundImageFix" result="effect1_dropShadow"/><feBlend in="SourceGraphic" in2="effect1_dropShadow" result="shape"/></filter></defs></svg>