<svg width="130" height="21" viewBox="0 0 130 21" fill="none" xmlns="http://www.w3.org/2000/svg"><path d="M47.908 8.846C48.012 8.706 56.24.02 56.24.02h-7.775s-7.321 6.795-7.635 7.075V.02h-7.322v20h7.322v-4.31c.07-.07 1.395-1.225 1.534-1.366.14.14 4.567 5.64 4.567 5.64h9.867c0 .035-8.786-10.999-8.89-11.139zM121.309 0v7.145h-6.311V0h-7.496v19.965h7.531v-7.25h6.241v7.25h7.74V0h-7.705zM71.702 6.091v7.986c0 .806-.592 1.471-1.29 1.471h-4.218c-.732 0-1.325-.665-1.325-1.47V6.09c0-.805.593-1.47 1.325-1.47h4.218c.698 0 1.29.665 1.29 1.47zm3.034-6.06h-12.97c-2.44 0-4.393 2.242-4.393 4.975v9.947c0 2.767 1.987 5.009 4.393 5.009h12.97c2.44 0 4.393-2.242 4.393-5.009V5.006c0-2.733-1.953-4.974-4.393-4.974zm29.212 7.236V5.76c.035-1.786-.628-3.572-1.709-4.658-.662-.7-1.464-1.05-2.266-1.05H86.411c-2.197 0-3.975 2.556-3.975 5.708v8.477c0 3.152 1.778 5.71 3.975 5.71h13.562c2.197 0 3.975-2.558 3.975-5.71v-2.312h-7.113l-.174 1.926c-.07.806-.627 1.682-1.325 1.682h-4.149c-.732 0-1.325-.63-1.325-1.436V6.146c0-.806.593-1.436 1.325-1.436h4.15c.731 0 1.324.63 1.324 1.436v1.12h7.287zM13.11.03H0v19.964h13.04s-3.069-9.877-3.104-9.947c0-.07 3.173-10.018 3.173-10.018z" fill="#000" fill-opacity=".3"/><path d="M17.76.035l-5.997 9.982 5.997 9.948h9.205V.035H17.76z" fill="#000" fill-opacity=".3"/></svg>