<svg width="93" height="64" viewBox="0 0 93 64" fill="none" xmlns="http://www.w3.org/2000/svg"><path d="M59.47 0h.813c-1.717 3.237-1.31 5.47-.859 7.704.271 1.504.588 3.009.09 4.923-3.389 0-6.552.82-9.354 2.28-.587-1.96-1.672-3.191-2.756-4.377-1.446-1.595-2.847-3.236-2.847-6.883C48.985 1.322 54.092 0 59.469 0zm2.259.091a32.7 32.7 0 0114.506 4.513c-3.073 2.006-3.751 4.149-4.474 6.291-.497 1.459-.95 2.918-2.305 4.33a19.867 19.867 0 00-8.676-2.552c.452-2.006.18-3.601-.136-5.197-.361-2.142-.768-4.24 1.085-7.385zM77.455 5.38a32.954 32.954 0 0110.574 11.214c-3.615.228-5.287 1.733-6.959 3.282-1.13 1.049-2.26 2.052-4.112 2.645a20.952 20.952 0 00-6.372-6.565c1.356-1.504 1.898-3.054 2.395-4.604.678-2.097 1.356-4.148 4.474-5.972zm11.297 12.445c1.446 2.735 2.486 5.744 3.118 8.89H78.946a26.51 26.51 0 00-1.31-3.1c1.943-.639 3.118-1.733 4.293-2.827 1.581-1.413 3.163-2.872 6.823-2.963zm-11.297 8.89H41.484C44.15 19.328 51.2 14.04 59.469 14.04c8.27 0 15.32 5.287 17.986 12.672zm-37.417 0H27.114a32.184 32.184 0 013.57-9.665c2.033 3.055 4.157 3.693 6.326 4.377 1.446.455 2.892.911 4.338 2.233a15.158 15.158 0 00-1.31 3.055zm-8.676-10.941A33.89 33.89 0 0143.245 4.285c.181 3.647 1.672 5.38 3.164 7.066.994 1.14 2.033 2.28 2.575 4.194a20.739 20.739 0 00-6.959 6.929c-1.536-1.368-3.073-1.823-4.61-2.325-2.078-.593-4.111-1.23-6.054-4.376zM0 52.287h10.845v-3.966H3.751V20.514H0v31.773zm27.023-6.29c0 4.695 1.763 6.7 6.01 6.7 4.248 0 6.056-2.005 6.056-6.7V30.952h-3.66v15.271c0 1.96-.814 2.963-2.396 2.963-1.581 0-2.395-1.002-2.395-2.963v-15.27h-3.615v15.043zm16.043 6.29h3.795V37.472c0-2.143.814-3.237 2.44-3.237 1.944 0 2.396 1.185 2.396 3.738v14.36h3.75V37.472c0-2.143.86-3.237 2.531-3.237 2.034 0 2.44 1.185 2.44 3.738v14.36h3.796V36.059c0-3.556-1.4-5.288-4.474-5.288-1.943 0-3.434.866-4.564 2.598-1.039-1.778-2.304-2.598-4.157-2.598-1.898 0-3.254.82-4.203 2.37V31h-3.75v21.288zM71.083 41.62c0-4.969.588-7.385 2.712-7.385 2.123 0 2.71 2.416 2.71 7.385 0 4.923-.632 7.43-2.71 7.43-2.08 0-2.712-2.461-2.712-7.43zm5.287 10.667h3.615V30.953H76.37v2.051c-.994-1.686-2.214-2.461-3.886-2.461-3.254 0-5.016 3.692-5.016 11.032 0 7.339 1.762 11.077 5.016 11.077 1.672 0 2.892-.82 3.886-2.507v2.142zm7.502 0h3.66V39.432c0-3.237 1.31-4.741 4.157-4.741h.633v-4.148c-2.214.136-3.841 1.14-4.88 3.51v-3.1h-3.57v21.334zm-69.863 0h10.845v-3.966H17.76V20.514h-3.75v31.773zm76.731-3.145c-.587 0-1.13.228-1.581.638-.452.456-.678 1.003-.678 1.596 0 .592.226 1.14.633 1.595.406.456.994.684 1.581.684.588 0 1.13-.228 1.582-.684.407-.41.678-.957.678-1.595 0-.593-.226-1.14-.633-1.596a2.248 2.248 0 00-1.582-.638zm0 .319c.543 0 .995.182 1.356.593.362.364.542.82.542 1.367 0 .502-.18 1.003-.542 1.322-.361.365-.858.547-1.4.547-.498 0-.95-.228-1.311-.593a1.94 1.94 0 01-.542-1.367c0-.502.225-1.003.587-1.368.316-.319.768-.501 1.31-.501zm-.903.638v2.553h.542v-1.049h.407l.497 1.049h.587l-.542-1.14c.361-.09.542-.319.542-.684 0-.455-.361-.683-1.084-.683h-.95v-.046zm.542.32h.316c.407 0 .588.136.588.41 0 .273-.181.41-.588.41h-.316v-.82zm-62.723 6.017l1.31 6.473h1.175l.723-3.602c.046-.227.09-.729.181-1.458.045.638.09 1.14.136 1.459l.678 3.555h1.13l1.31-6.473h-1.266l-.497 3.1c-.09.638-.135 1.23-.135 1.778l-.859-4.924h-1.084l-.859 4.924c-.045-.775-.09-1.413-.18-1.96l-.453-2.918h-1.31v.046zm8.902 6.518h1.31v-6.473h-1.31v6.473zm3.796 0h1.175V60.22c0-.73 0-1.413-.09-2.006.18.593.27.958.316 1.094l1.401 3.647h1.175v-6.473h-1.175v2.507c0 .684.09 1.46.18 2.325-.18-.684-.316-1.14-.406-1.322l-1.31-3.51h-1.311v6.473h.045zm6.643 0h.95c.813 0 1.445-.045 1.987-.501.769-.593 1.13-1.504 1.13-2.735 0-2.188-.994-3.237-2.937-3.237h-1.13v6.473zm1.265-1.23V57.62h.09c.95 0 1.447.684 1.447 2.097 0 1.322-.497 2.006-1.401 2.006h-.136zm9.49-1.915c0-2.188-.904-3.419-2.26-3.419-1.355 0-2.259 1.23-2.259 3.328 0 2.097.859 3.328 2.26 3.328 1.355-.046 2.26-1.231 2.26-3.237zm-2.26 1.96c-.677 0-.993-.684-.993-2.097 0-1.413.316-2.097.994-2.097.678 0 .994.684.994 2.097 0 1.413-.316 2.097-.994 2.097zm4.43-5.333l1.31 6.473h1.175l.723-3.602c.045-.227.09-.729.18-1.458.046.638.09 1.14.136 1.459l.678 3.555h1.13l1.31-6.473H65.3l-.497 3.1c-.09.638-.136 1.23-.136 1.778l-.858-4.924h-1.085l-.859 4.924c-.045-.775-.09-1.413-.18-1.96l-.452-2.918h-1.31v.046zm25.803 6.518h1.355l.226-3.008c.045-.73.136-1.505.136-2.325l.813 5.288h.994l.904-5.288c0 .911.045 1.64.09 2.233l.136 3.01h1.356l-.588-6.474H89.43l-.452 2.462c-.045.364-.135 1.048-.226 2.097a29.754 29.754 0 00-.226-2.097l-.361-2.462h-1.718l-.722 6.564zm-4.7 0h2.711v-1.276H82.29v-5.242h-1.265v6.518zm-3.841 0h1.31v-6.473h-1.31v6.473zm-5.016 0h1.265V60.22h1.4v-1.185h-1.4v-1.368h1.536v-1.185h-2.756v6.473h-.045z" fill="#000" fill-opacity=".3"/></svg>